<?xml version="1.0" encoding="utf-8"?>
<!-- Generator: Adobe Illustrator 27.9.0, SVG Export Plug-In . SVG Version: 6.00 Build 0)  -->
<svg version="1.1" id="Layer_1" xmlns="http://www.w3.org/2000/svg" xmlns:xlink="http://www.w3.org/1999/xlink" x="0px" y="0px"
	 viewBox="0 0 512 512" style="enable-background:new 0 0 512 512;" xml:space="preserve">
<style type="text/css">
	.st0{fill:#FFFFFF;}
</style>
<path class="st0" d="M260.5,34.6C137,34.6,37,134.6,37,258.1c0,111.6,81.7,204,188.6,220.8v0V322.7h-56.8v-64.6v0h56.8v-49.2v0
	c0-15.8,2.6-29.5,7.6-41.2s12.1-21.2,21.3-28.5c4.1-3.2,8.5-6,13.3-8.4c1.2-0.6,2.4-1.1,3.7-1.7c3.7-1.6,7.7-2.9,11.8-4
	c1.4-0.4,2.8-0.7,4.2-1c7.1-1.5,14.6-2.2,22.6-2.2h0l0,0c0.8,0,1.5,0,2.3,0c0.8,0,1.5,0,2.3,0c4.6,0.1,9.2,0.3,13.5,0.6
	c5.1,0.4,9.9,0.8,14.2,1.3c1.8,0.2,3.6,0.4,5.2,0.6c7.6,0.9,12.4,1.8,12.4,1.8v55v0h-28.2c-15.1,0-24.6,5.1-30,12.6
	c-4.6,6.3-6.4,14.2-6.4,22.3v42h62l-9.9,64.6h0v0h-52.1v156.1v0.1C402.3,462.1,484,369.6,484,258.1C484,134.6,384,34.6,260.5,34.6z"
	/>
</svg>
