<?xml version="1.0" encoding="utf-8"?>
<!-- Generator: Adobe Illustrator 27.4.0, SVG Export Plug-In . SVG Version: 6.00 Build 0)  -->
<svg version="1.1" id="fg" xmlns="http://www.w3.org/2000/svg" xmlns:xlink="http://www.w3.org/1999/xlink" x="0px" y="0px"
	 viewBox="0 0 512 512" style="enable-background:new 0 0 512 512;" xml:space="preserve">
<defs>
	<linearGradient id="color-2" x1="0" x2="0" y1="0" y2="1">
      <stop offset="0%" stop-color="#654C9F" />
      <stop offset="100%" stop-color="#654C9F" />
    </linearGradient>
</defs>
<style type="text/css">
	.color0{fill:#ffffff;}
	.color1{fill:#ffffff;}
	.color2{fill:#ffffff;}
</style>
<g id="fg">
	<g>
		<radialGradient id="color-0" cx="73.5351" cy="480.5884" r="646.2739" gradientTransform="matrix(0.9986 -0.0523 -0.0445 -0.8488 -6.9198 851.1997)" gradientUnits="userSpaceOnUse">
			<stop  offset="0" style="stop-color:#FED576"/>
			<stop  offset="0.2634" style="stop-color:#F47133"/>
			<stop  offset="0.6091" style="stop-color:#BC3081"/>
			<stop  offset="1" style="stop-color:#4C63D2"/>
		</radialGradient>
		<path class="color0" d="M114.13,45.16c-14.72,5.72-27.17,13.36-39.61,25.8c-12.45,12.36-20.08,24.89-25.8,39.52
			c-5.54,14.17-9.27,30.44-10.36,54.24S37,196.15,37,256.84s0.27,68.32,1.36,92.13s4.91,40.07,10.36,54.24
			c5.72,14.72,13.36,27.17,25.8,39.61s24.89,20.08,39.61,25.8c14.17,5.54,30.44,9.27,54.24,10.36c23.8,1.09,31.44,1.36,92.13,1.36
			s68.32-0.27,92.13-1.36c23.8-1.09,40.07-4.91,54.24-10.36c14.72-5.72,27.17-13.36,39.61-25.8c12.45-12.45,20.08-24.89,25.8-39.61
			c5.54-14.17,9.27-30.44,10.36-54.24c1.09-23.8,1.36-31.44,1.36-92.13s-0.27-68.32-1.36-92.13c-1.09-23.8-4.91-40.07-10.36-54.24
			c-5.72-14.63-13.36-27.17-25.71-39.52c-12.45-12.45-24.89-20.08-39.61-25.8c-14.17-5.54-30.44-9.27-54.24-10.36
			c-23.8-1.09-31.44-1.36-92.13-1.36s-68.32,0.27-92.13,1.36C144.57,35.8,128.31,39.61,114.13,45.16z M350.81,74.96
			c21.8,1,33.62,4.63,41.52,7.72c10.45,4.09,17.9,8.9,25.71,16.72s12.63,15.26,16.72,25.71c3.09,7.9,6.72,19.72,7.72,41.52
			c1.09,23.53,1.27,30.62,1.27,90.31s-0.27,66.78-1.27,90.31c-1,21.8-4.63,33.62-7.72,41.52c-4.09,10.45-8.9,17.9-16.72,25.71
			c-7.81,7.81-15.26,12.63-25.71,16.72c-7.9,3.09-19.72,6.72-41.52,7.72c-23.53,1.09-30.62,1.27-90.31,1.27s-66.78-0.27-90.31-1.27
			c-21.8-1-33.62-4.63-41.52-7.72c-10.45-4.09-17.9-8.9-25.71-16.72s-12.63-15.26-16.72-25.71c-3.09-7.9-6.72-19.72-7.72-41.52
			c-1.09-23.53-1.27-30.62-1.27-90.31s0.27-66.78,1.27-90.31c1-21.8,4.63-33.62,7.72-41.52c4.09-10.45,8.9-17.9,16.72-25.71
			s15.26-12.63,25.71-16.72c7.9-3.09,19.72-6.72,41.52-7.72c23.53-1.09,30.62-1.27,90.31-1.27S327.28,73.86,350.81,74.96z"/>
		
		<radialGradient id="color-1" cx="160.2561" cy="355.4039" r="331.8703" gradientTransform="matrix(0.9986 -0.0523 -0.0445 -0.8488 5.6927 660.6929)" gradientUnits="userSpaceOnUse">
			<stop  offset="0" style="stop-color:#FED576"/>
			<stop  offset="0.2634" style="stop-color:#F47133"/>
			<stop  offset="0.6091" style="stop-color:#BC3081"/>
			<stop  offset="1" style="stop-color:#4C63D2"/>
		</radialGradient>
		<path class="color1" d="M145.75,256.94
			c0,63.42,51.42,114.75,114.75,114.75s114.75-51.42,114.75-114.75S323.92,142.19,260.5,142.19S145.75,193.52,145.75,256.94z
			 M335,256.94c0,41.16-33.34,74.5-74.5,74.5s-74.5-33.34-74.5-74.5s33.34-74.5,74.5-74.5S335,215.78,335,256.94z"/>
		<circle class="color2" cx="379.88" cy="137.64" r="26.8"/>
	</g>
</g>
</svg>
