<?xml version="1.0" encoding="utf-8"?>
<!-- Generator: Adobe Illustrator 27.4.0, SVG Export Plug-In . SVG Version: 6.00 Build 0)  -->
<svg version="1.1" id="fg" xmlns="http://www.w3.org/2000/svg" xmlns:xlink="http://www.w3.org/1999/xlink" x="0px" y="0px"
	 viewBox="0 0 512 512" style="enable-background:new 0 0 512 512;" xml:space="preserve">
<defs>
	<linearGradient id="color-0" x1="0" x2="0" y1="0" y2="1">
      <stop offset="0%" stop-color="#1DA1F2" />
      <stop offset="100%" stop-color="#1DA1F2" />
    </linearGradient>
</defs>
<style type="text/css">
	.color0{fill:#ffffff;}
</style>
<path class="color0" d="M438.07,167.3c0.28,3.97,0.28,7.94,0.28,11.92c0,121.12-92.19,260.67-260.67,260.67
	c-51.91,0-100.13-15.03-140.69-41.12c7.38,0.85,14.46,1.13,22.12,1.13c42.83,0,82.26-14.46,113.74-39.14
	c-40.28-0.85-74.03-27.23-85.66-63.54c5.68,0.85,11.35,1.41,17.3,1.41c8.22,0,16.45-1.14,24.11-3.12
	c-41.98-8.51-73.46-45.39-73.46-89.92v-1.13c12.19,6.81,26.38,11.06,41.41,11.63c-24.68-16.45-40.85-44.53-40.85-76.3
	c0-17.02,4.54-32.62,12.48-46.23c45.1,55.59,112.89,91.9,188.9,95.87c-1.41-6.81-2.27-13.9-2.27-20.99
	c0-50.49,40.85-91.62,91.62-91.62c26.38,0,50.2,11.06,66.94,28.93c20.71-3.97,40.56-11.63,58.15-22.12
	c-6.81,21.28-21.28,39.14-40.28,50.49c18.44-1.98,36.31-7.09,52.75-14.19C471.54,138.08,455.94,154.25,438.07,167.3L438.07,167.3z"
	/>
</svg>