<?xml version="1.0" encoding="utf-8"?>
<!-- Generator: Adobe Illustrator 27.9.0, SVG Export Plug-In . SVG Version: 6.00 Build 0)  -->
<svg version="1.1" id="Layer_1" xmlns="http://www.w3.org/2000/svg" xmlns:xlink="http://www.w3.org/1999/xlink" x="0px" y="0px"
	 viewBox="0 0 512 512" style="enable-background:new 0 0 512 512;" xml:space="preserve">
<style type="text/css">
	.st0{fill:#FFFFFF;}
</style>
<path class="st0" d="M475.6,151.1c-5.2-19.4-20.4-34.8-39.7-40c-35-9.4-175.4-9.4-175.4-9.4s-140.4,0-175.4,9.4
	c-19.3,5.2-34.5,20.5-39.7,40C36,186.3,36,259.9,36,259.9s0,73.5,9.4,108.8c5.2,19.5,20.4,34.1,39.7,39.3
	c35,9.4,175.4,9.4,175.4,9.4s140.4,0,175.4-9.4c19.3-5.2,34.5-19.9,39.7-39.3c9.4-35.2,9.4-108.8,9.4-108.8S485,186.3,475.6,151.1z
	 M214.6,326.6V193.1l117.3,66.8L214.6,326.6z"/>
</svg>
