<?xml version="1.0" encoding="utf-8"?>
<!-- Generator: Adobe Illustrator 27.9.0, SVG Export Plug-In . SVG Version: 6.00 Build 0)  -->
<svg version="1.1" id="Layer_1" xmlns:dc="http://purl.org/dc/elements/1.1/" xmlns:xl="http://www.w3.org/1999/xlink"
	 xmlns="http://www.w3.org/2000/svg" xmlns:xlink="http://www.w3.org/1999/xlink" x="0px" y="0px" viewBox="0 0 332 110"
	 style="enable-background:new 0 0 332 110;" xml:space="preserve">
<style type="text/css">
	.st0{fill:#FFFFFF;}
</style>
<g>
	<path class="st0" d="M218.6,2.1h30.5L274,42.5l24.9-40.4h30.6v104.3h-28.8V46.5L274,87.3h-0.6l-26.5-40.7v59.8h-28.3V2.1z"/>
	<path class="st0" d="M56.3,0C35.1,0,17.5,10.5,7.8,26.1h47.5h0.6c15.9,0,26.7,13,26.7,28.2v0.3c0,15.1-10.6,27.9-26.4,27.9H7.6
		c9.5,15.7,27.1,26.1,48.3,26.1c32.2,0,56.3-24.3,56.3-54.3V54C112.3,24,88.4,0,56.3,0"/>
	<path class="st0" d="M29.6,57.6H0C0.3,63.9,1.8,70,4.2,75.8h34.5C33.6,71.1,30.3,64.6,29.6,57.6"/>
	<path class="st0" d="M29.6,51c0.6-7,3.7-13.5,8.9-18.3H4.4c-2.5,5.8-4,12-4.4,18.3H29.6z"/>
	<path class="st0" d="M166.1,2.1h-44.9v104.3h29V26.3h13.6c10.2,0,16.7,4.6,16.7,13.6v0.3c0,8.2-6.4,13.7-16.6,13.7h-7.2v22.7h7.9
		c25.8,0,44.7-13,44.7-37.7v-0.3C209.4,15.7,192.4,2.2,166.1,2.1"/>
</g>
</svg>
