<?xml version="1.0" encoding="UTF-8" standalone="no"?>
<!DOCTYPE svg PUBLIC "-//W3C//DTD SVG 1.1//EN" "http://www.w3.org/Graphics/SVG/1.1/DTD/svg11.dtd">
<svg xmlns:dc="http://purl.org/dc/elements/1.1/" version="1.1" xmlns="http://www.w3.org/2000/svg" xmlns:xl="http://www.w3.org/1999/xlink" viewBox="0 0 332 110" width="332" height="110">
  <defs/>
  <g id="Canvas_1" stroke="none" stroke-dasharray="none" fill="none" stroke-opacity="1" fill-opacity="1">
    <title>Canvas 1</title>
    <g id="Canvas_1_Layer_1">
      <title>Layer 1</title>
      <g id="Group_2">
        <title>Layer_2</title>
        <g id="Group_3">
          <title>Layer_1-2</title>
          <g id="Graphic_8">
            <path d="M 218.56826 2.0967007 L 249.11532 2.0967007 L 274.02003 42.479497 L 298.9077 2.0967007 L 329.4718 2.0967007 L 329.4718 106.43739 L 300.69756 106.43739 L 300.69756 46.502435 L 274.02003 87.34548 L 273.4234 87.34548 L 246.88225 46.65585 L 246.88225 106.43739 L 218.56826 106.43739 Z" fill="#093453"/>
          </g>
          <g id="Graphic_7">
            <path d="M 56.252946 2842171e-20 C 35.115475 2842171e-20 17.45546 10.466457 7.807227 26.115004 L 55.33244 26.115004 L 55.94611 26.115004 C 71.88445 26.115004 82.623645 39.087274 82.623645 54.292616 L 82.623645 54.54831 C 82.623645 69.600236 72.03786 82.41909 56.2359 82.41909 L 7.619717 82.41909 C 17.148625 98.08468 34.72341 108.5 55.94611 108.5 C 88.14666 108.5 112.28429 84.20896 112.28429 54.24148 L 112.28429 53.95169 C 112.28429 24.001257 88.43645 2842171e-20 56.252946 2842171e-20" fill="#093453"/>
          </g>
          <g id="Graphic_6">
            <path d="M 29.62655 57.565515 L -24868996e-21 57.565515 C .33508897 63.858125 1.7717187 70.04313 4.2445405 75.8392 L 38.78044 75.8392 C 33.568393 71.09407 30.305895 64.58122 29.62655 57.565515" fill="#d13038"/>
          </g>
          <g id="Graphic_5">
            <path d="M 29.575412 50.96858 C 30.15781 43.97927 33.324273 37.457935 38.45656 32.677848 L 4.363865 32.677848 C 1.844701 38.47061 .367432 44.662446 -42632564e-21 50.96858 Z" fill="#009dd2"/>
          </g>
          <g id="Graphic_4">
            <path d="M 166.0996 2.0967007 L 121.23362 2.0967007 L 121.23362 106.43739 L 150.21241 106.43739 L 150.21241 26.31956 L 163.84949 26.31956 C 174.0773 26.31956 180.53786 30.93912 180.53786 39.95664 L 180.53786 40.246426 C 180.53786 48.44572 174.12844 53.968735 163.98586 53.968735 L 156.8264 53.968735 L 156.8264 76.70856 L 164.68476 76.70856 C 190.47588 76.70856 209.41438 63.73629 209.41438 39.002042 L 209.41438 38.69521 C 209.41438 15.733778 192.36803 2.1819324 166.18484 2.1819324" fill="#093453"/>
          </g>
        </g>
      </g>
    </g>
  </g>
</svg>
